<?xml version="1.0" encoding="UTF-8"?>
<!DOCTYPE svg PUBLIC "-//W3C//DTD SVG 1.1//EN" "http://www.w3.org/Graphics/SVG/1.1/DTD/svg11.dtd">
<svg
  xmlns="http://www.w3.org/2000/svg"
  style="background: transparent; background-color: transparent; color-scheme: light dark"
  xmlns:xlink="http://www.w3.org/1999/xlink"
  version="1.1"
  width="520px"
  height="362px"
  viewBox="0 0 520 362"
>
  <defs />
  <g>
    <g data-cell-id="0">
      <g data-cell-id="1">
        <g data-cell-id="vpc">
          <g transform="translate(0.5,0.5)">
            <path
              d="M 0 200 L 240 200 L 240 360 L 0 360 Z"
              fill="none"
              stroke="#248814"
              stroke-miterlimit="10"
              pointer-events="all"
              style="stroke: light-dark(rgb(36, 136, 20), rgb(85, 171, 71))"
            />
            <path
              d="M 10.59 206.65 C 10.53 206.65 10.48 206.65 10.42 206.65 L 10.42 206.65 C 9.11 206.68 8.03 207.24 7.14 208.25 C 7.13 208.25 7.13 208.25 7.13 208.25 C 6.2 209.36 5.87 210.52 5.96 211.73 C 4.81 212.06 4.12 212.92 3.76 213.74 C 3.75 213.75 3.75 213.76 3.74 213.78 C 3.33 215.05 3.68 216.36 4.24 217.16 C 4.25 217.17 4.25 217.17 4.26 217.18 C 4.94 218.05 5.97 218.53 7.02 218.53 L 18.17 218.53 C 19.19 218.53 20.07 218.16 20.8 217.37 C 21.25 216.94 21.49 216.29 21.58 215.59 C 21.67 214.9 21.61 214.16 21.32 213.55 C 21.31 213.54 21.31 213.53 21.31 213.52 C 20.8 212.62 19.95 211.81 18.76 211.64 C 18.74 210.79 18.28 209.99 17.68 209.56 C 17.67 209.55 17.66 209.55 17.65 209.54 C 17.01 209.18 16.4 209.14 15.91 209.3 C 15.6 209.4 15.36 209.56 15.14 209.74 C 14.51 208.36 13.43 207.18 11.81 206.79 C 11.81 206.79 11.81 206.79 11.81 206.79 C 11.38 206.7 10.97 206.65 10.59 206.65 Z M 10.43 207.38 C 10.8 207.38 11.2 207.43 11.64 207.53 C 13.16 207.89 14.15 209.07 14.66 210.48 C 14.71 210.6 14.81 210.69 14.94 210.72 C 15.07 210.74 15.2 210.7 15.29 210.61 C 15.54 210.34 15.83 210.11 16.14 210.01 C 16.44 209.91 16.78 209.92 17.26 210.18 C 17.67 210.49 18.11 211.31 18.03 211.9 C 18.01 212.01 18.05 212.12 18.12 212.2 C 18.19 212.28 18.29 212.33 18.39 212.33 C 19.46 212.34 20.16 213.02 20.64 213.88 C 20.85 214.3 20.91 214.92 20.84 215.5 C 20.76 216.07 20.53 216.59 20.28 216.83 C 20.27 216.84 20.27 216.85 20.26 216.85 C 19.65 217.53 19.03 217.78 18.17 217.78 L 7.02 217.78 C 6.2 217.78 5.39 217.41 4.85 216.73 C 4.44 216.13 4.14 215.02 4.46 214.02 C 4.79 213.27 5.36 212.55 6.41 212.36 C 6.6 212.32 6.74 212.14 6.71 211.94 C 6.56 210.79 6.8 209.81 7.7 208.74 C 8.49 207.85 9.33 207.39 10.43 207.38 Z M 12.2 210.7 C 11.77 210.7 11.4 210.93 11.13 211.21 C 10.85 211.5 10.64 211.85 10.64 212.25 L 10.64 212.71 L 10.14 212.71 C 10.04 212.71 9.94 212.75 9.87 212.82 C 9.8 212.89 9.76 212.98 9.76 213.08 L 9.76 215.7 C 9.76 215.8 9.8 215.89 9.87 215.96 C 9.94 216.03 10.04 216.07 10.14 216.07 L 14.16 216.07 C 14.26 216.07 14.35 216.03 14.42 215.96 C 14.49 215.89 14.53 215.8 14.53 215.7 L 14.53 213.08 C 14.53 212.98 14.49 212.89 14.42 212.82 C 14.35 212.75 14.26 212.71 14.16 212.71 L 13.68 212.71 L 13.68 212.25 C 13.68 211.84 13.47 211.47 13.21 211.2 C 12.94 210.92 12.61 210.7 12.2 210.7 Z M 12.2 211.45 C 12.29 211.45 12.5 211.54 12.67 211.72 C 12.83 211.89 12.93 212.11 12.93 212.25 L 12.93 212.71 L 11.39 212.71 L 11.39 212.25 C 11.39 212.15 11.49 211.91 11.66 211.74 C 11.83 211.56 12.06 211.45 12.2 211.45 Z M 10.51 213.46 L 13.78 213.46 L 13.78 215.32 L 10.51 215.32 Z M 0 225 L 0 200 L 25 200 L 25 225 Z"
              fill="#248814"
              stroke="none"
              pointer-events="all"
              style="fill: light-dark(rgb(36, 136, 20), rgb(85, 171, 71))"
            />
          </g>
          <g>
            <g
              fill="#000000"
              font-family="Helvetica"
              text-anchor="middle"
              font-size="12px"
              style="fill: light-dark(rgb(0, 0, 0), rgb(255, 255, 255))"
            >
              <text x="120" y="218">VPC</text>
            </g>
          </g>
        </g>
        <g data-cell-id="ec2">
          <g transform="translate(0.5,0.5)">
            <path
              d="M 40 240 L 118 240 L 118 318 L 40 318 Z"
              fill="#ed7100"
              stroke="none"
              pointer-events="all"
              style="fill: light-dark(rgb(237, 113, 0), rgb(216, 109, 12))"
            />
            <path
              d="M 64.51 293.49 L 92.37 293.49 L 92.37 265.63 L 64.51 265.63 Z M 94.6 265.63 L 99.06 265.63 L 99.06 267.86 L 94.6 267.86 L 94.6 272.31 L 99.06 272.31 L 99.06 274.54 L 94.6 274.54 L 94.6 277.89 L 99.06 277.89 L 99.06 280.11 L 94.6 280.11 L 94.6 284.57 L 99.06 284.57 L 99.06 286.8 L 94.6 286.8 L 94.6 291.26 L 99.06 291.26 L 99.06 293.49 L 94.6 293.49 L 94.6 293.64 C 94.6 294.78 93.67 295.71 92.52 295.71 L 92.37 295.71 L 92.37 300.17 L 90.14 300.17 L 90.14 295.71 L 85.69 295.71 L 85.69 300.17 L 83.46 300.17 L 83.46 295.71 L 80.11 295.71 L 80.11 300.17 L 77.89 300.17 L 77.89 295.71 L 73.43 295.71 L 73.43 300.17 L 71.2 300.17 L 71.2 295.71 L 66.74 295.71 L 66.74 300.17 L 64.51 300.17 L 64.51 295.71 L 64.36 295.71 C 63.22 295.71 62.29 294.78 62.29 293.64 L 62.29 293.49 L 58.94 293.49 L 58.94 291.26 L 62.29 291.26 L 62.29 286.8 L 58.94 286.8 L 58.94 284.57 L 62.29 284.57 L 62.29 280.11 L 58.94 280.11 L 58.94 277.89 L 62.29 277.89 L 62.29 274.54 L 58.94 274.54 L 58.94 272.31 L 62.29 272.31 L 62.29 267.86 L 58.94 267.86 L 58.94 265.63 L 62.29 265.63 L 62.29 265.48 C 62.29 264.33 63.22 263.4 64.36 263.4 L 64.51 263.4 L 64.51 258.94 L 66.74 258.94 L 66.74 263.4 L 71.2 263.4 L 71.2 258.94 L 73.43 258.94 L 73.43 263.4 L 77.89 263.4 L 77.89 258.94 L 80.11 258.94 L 80.11 263.4 L 83.46 263.4 L 83.46 258.94 L 85.69 258.94 L 85.69 263.4 L 90.14 263.4 L 90.14 258.94 L 92.37 258.94 L 92.37 263.4 L 92.52 263.4 C 93.67 263.4 94.6 264.33 94.6 265.48 Z M 80.11 307.83 C 80.11 307.91 80.05 307.97 79.98 307.97 L 50.17 307.97 C 50.09 307.97 50.03 307.91 50.03 307.83 L 50.03 278.02 C 50.03 277.95 50.09 277.89 50.17 277.89 L 56.71 277.89 L 56.71 275.66 L 50.17 275.66 C 48.86 275.66 47.8 276.72 47.8 278.02 L 47.8 307.83 C 47.8 309.14 48.86 310.2 50.17 310.2 L 79.98 310.2 C 81.28 310.2 82.34 309.14 82.34 307.83 L 82.34 302.4 L 80.11 302.4 Z M 110.2 250.17 L 110.2 279.98 C 110.2 281.28 109.14 282.34 107.83 282.34 L 101.29 282.34 L 101.29 280.11 L 107.83 280.11 C 107.91 280.11 107.97 280.05 107.97 279.98 L 107.97 250.17 C 107.97 250.09 107.91 250.03 107.83 250.03 L 78.02 250.03 C 77.95 250.03 77.89 250.09 77.89 250.17 L 77.89 256.71 L 75.66 256.71 L 75.66 250.17 C 75.66 248.86 76.72 247.8 78.02 247.8 L 107.83 247.8 C 109.14 247.8 110.2 248.86 110.2 250.17 Z"
              fill="#ffffff"
              stroke="none"
              pointer-events="all"
              style="fill: light-dark(rgb(255, 255, 255), rgb(18, 18, 18))"
            />
          </g>
          <g>
            <g
              fill="#000000"
              font-family="Helvetica"
              text-anchor="middle"
              font-size="12px"
              style="fill: light-dark(rgb(0, 0, 0), rgb(255, 255, 255))"
            >
              <text x="79" y="336">EC2</text>
            </g>
          </g>
        </g>
        <g data-cell-id="rds">
          <g transform="translate(0.5,0.5)">
            <path
              d="M 440 0 L 518 0 L 518 78 L 440 78 Z"
              fill="#2e73b8"
              stroke="none"
              pointer-events="all"
              style="fill: light-dark(rgb(46, 115, 184), rgb(95, 155, 214))"
            />
            <path
              d="M 451.6 10.03 L 461.96 20.38 L 460.38 21.96 L 450.03 11.6 L 450.03 20.06 L 447.8 20.06 L 447.8 8.91 C 447.8 8.3 448.3 7.8 448.91 7.8 L 460.06 7.8 L 460.06 10.03 Z M 510.2 8.91 L 510.2 20.06 L 507.97 20.06 L 507.97 11.6 L 497.62 21.96 L 496.04 20.38 L 506.4 10.03 L 497.94 10.03 L 497.94 7.8 L 509.09 7.8 C 509.7 7.8 510.2 8.3 510.2 8.91 Z M 507.97 57.94 L 510.2 57.94 L 510.2 69.09 C 510.2 69.7 509.7 70.2 509.09 70.2 L 497.94 70.2 L 497.94 67.97 L 506.4 67.97 L 496.04 57.62 L 497.62 56.04 L 507.97 66.4 Z M 507.41 38.12 C 507.41 34.42 503.14 30.77 495.99 28.35 L 496.71 26.24 C 504.93 29.02 509.64 33.35 509.64 38.12 C 509.64 42.89 504.93 47.23 496.71 50.01 L 495.99 47.9 C 503.14 45.48 507.41 41.82 507.41 38.12 Z M 450.65 38.12 C 450.65 41.67 454.65 45.22 461.34 47.64 L 460.58 49.74 C 452.85 46.95 448.42 42.71 448.42 38.12 C 448.42 33.53 452.85 29.3 460.58 26.51 L 461.34 28.61 C 454.65 31.02 450.65 34.58 450.65 38.12 Z M 461.96 57.62 L 451.6 67.97 L 460.06 67.97 L 460.06 70.2 L 448.91 70.2 C 448.3 70.2 447.8 69.7 447.8 69.09 L 447.8 57.94 L 450.03 57.94 L 450.03 66.4 L 460.38 56.04 Z M 479 29.29 C 471.04 29.29 466.74 27.23 466.74 26.39 C 466.74 25.55 471.04 23.5 479 23.5 C 486.96 23.5 491.26 25.55 491.26 26.39 C 491.26 27.23 486.96 29.29 479 29.29 Z M 479.03 37.92 C 471.41 37.92 466.74 35.84 466.74 34.7 L 466.74 29.29 C 469.49 30.8 474.36 31.52 479 31.52 C 483.64 31.52 488.51 30.8 491.26 29.29 L 491.26 34.7 C 491.26 35.84 486.62 37.92 479.03 37.92 Z M 479.03 46.43 C 471.41 46.43 466.74 44.35 466.74 43.21 L 466.74 37.73 C 469.45 39.32 474.26 40.15 479.03 40.15 C 483.78 40.15 488.56 39.33 491.26 37.74 L 491.26 43.21 C 491.26 44.35 486.62 46.43 479.03 46.43 Z M 479 54.06 C 471.07 54.06 466.74 51.93 466.74 50.84 L 466.74 46.24 C 469.45 47.83 474.26 48.66 479.03 48.66 C 483.78 48.66 488.56 47.84 491.26 46.25 L 491.26 50.84 C 491.26 51.93 486.93 54.06 479 54.06 Z M 479 21.27 C 472.02 21.27 464.51 22.87 464.51 26.39 L 464.51 50.84 C 464.51 54.42 471.8 56.29 479 56.29 C 486.2 56.29 493.49 54.42 493.49 50.84 L 493.49 26.39 C 493.49 22.87 485.98 21.27 479 21.27 Z"
              fill="#ffffff"
              stroke="none"
              pointer-events="all"
              style="fill: light-dark(rgb(255, 255, 255), rgb(18, 18, 18))"
            />
          </g>
          <g>
            <g
              fill="#000000"
              font-family="Helvetica"
              text-anchor="middle"
              font-size="12px"
              style="fill: light-dark(rgb(0, 0, 0), rgb(255, 255, 255))"
            >
              <text x="479" y="96">RDS</text>
            </g>
          </g>
        </g>
        <g data-cell-id="e1">
          <g transform="translate(0.5,0.5)">
            <path
              d="M 118 279 L 479 279 L 479 84.37"
              fill="none"
              stroke="#000000"
              stroke-miterlimit="10"
              pointer-events="stroke"
              style="stroke: light-dark(rgb(0, 0, 0), rgb(255, 255, 255))"
            />
            <path
              d="M 479 79.12 L 482.5 86.12 L 479 84.37 L 475.5 86.12 Z"
              fill="#000000"
              stroke="#000000"
              stroke-miterlimit="10"
              pointer-events="all"
              style="fill: light-dark(rgb(0, 0, 0), rgb(255, 255, 255)); stroke: light-dark(rgb(0, 0, 0), rgb(255, 255, 255))"
            />
          </g>
        </g>
      </g>
    </g>
  </g>
</svg>
